<svg width="1439" height="4993" viewBox="0 0 1439 4993" fill="none" xmlns="http://www.w3.org/2000/svg">
<rect width="1440" height="4993" fill="#FAFCFF"/>
<path fill-rule="evenodd" clip-rule="evenodd" d="M425.143 250.645C398.645 265.301 371.733 280.185 334.505 288.235C297.152 296.313 249.786 299.102 202.994 301.857H202.994C186.082 302.852 169.245 303.844 152.983 305.079C122.334 307.406 93.7223 310.599 70.4466 316.307C47.1481 322.022 29.3083 330.232 20.0763 342.512C0.4884 368.567 -2.53921 402.586 15.2931 439.257C33.1349 475.947 71.8634 515.285 135.773 551.84C199.392 588.231 281.589 608.364 368.259 626.503C382.902 629.568 397.672 632.575 412.501 635.595C485.413 650.442 559.743 665.577 627.308 689.192C686.41 709.848 736.22 736.794 785.332 763.363C791.899 766.916 798.454 770.462 805.018 773.986C860.668 803.862 916.915 832.116 986.351 849.103C1062.47 867.731 1141.39 880.825 1212.12 886.018C1282.86 891.212 1345.36 888.499 1388.65 875.545C1409.85 869.204 1422.2 859.777 1428.91 848.397C1435.63 837.008 1436.74 823.579 1435.27 809.13C1434.07 797.233 1431.13 784.7 1428.17 772.097L1428.17 772.096C1427.53 769.386 1426.9 766.672 1426.28 763.962C1422.77 748.67 1419.8 733.462 1420.49 719.475C1421.15 706.33 1424.79 693.748 1428.78 681.324C1429.36 679.523 1429.95 677.726 1430.53 675.931C1433.99 665.322 1437.43 654.787 1439.22 644.007C1441.32 631.419 1441.17 618.524 1436.21 604.863C1431.24 591.197 1421.43 576.726 1404.14 561.012C1368.97 529.055 1313.69 499.981 1251.34 471.9C1220.17 457.863 1187.25 444.08 1154.21 430.312C1151.89 429.344 1149.57 428.377 1147.25 427.409L1147.24 427.407C1116.52 414.609 1085.8 401.811 1056.39 388.822C1020.44 372.941 984.773 355.395 949.062 337.674C945.74 336.025 942.416 334.375 939.092 332.724C906.691 316.633 874.229 300.511 841.447 285.463C769.157 252.277 695.343 224.325 617.3 213.452C539.171 202.567 494.24 215.687 455.996 234.288C445.401 239.441 435.302 245.026 425.143 250.645ZM455.559 233.388C493.973 214.704 539.104 201.548 617.438 212.462C695.623 223.354 769.54 251.353 841.864 284.554C874.66 299.609 907.135 315.737 939.533 331.827L939.534 331.827C942.859 333.478 946.183 335.129 949.507 336.779C985.219 354.5 1020.87 372.036 1056.8 387.907C1086.19 400.891 1116.9 413.685 1147.63 426.483L1147.63 426.484L1147.63 426.486L1147.63 426.487L1147.64 426.488L1148.06 426.666L1148.47 426.834L1148.84 426.991C1150.76 427.79 1152.68 428.59 1154.6 429.389C1187.64 443.156 1220.57 456.945 1251.75 470.988C1314.1 499.07 1369.52 528.198 1404.81 560.272C1422.19 576.064 1432.11 590.665 1437.15 604.521C1442.19 618.382 1442.33 631.458 1440.21 644.171C1438.4 655.032 1434.94 665.648 1431.48 676.252C1430.9 678.045 1430.31 679.837 1429.74 681.63C1425.75 694.049 1422.14 706.522 1421.49 719.525C1420.8 733.358 1423.75 748.444 1427.25 763.738C1427.86 766.422 1428.5 769.112 1429.13 771.802L1429.14 771.846L1429.14 771.848C1432.1 784.451 1435.06 797.061 1436.27 809.029C1437.74 823.574 1436.64 837.252 1429.77 848.905C1422.9 860.567 1410.29 870.115 1388.94 876.503C1345.47 889.51 1282.83 892.212 1212.05 887.016C1141.26 881.818 1062.28 868.714 986.113 850.074C916.547 833.056 860.208 804.75 804.545 774.867C797.978 771.341 791.421 767.794 784.853 764.241C735.737 737.67 685.999 710.764 626.979 690.136C559.483 666.546 485.234 651.426 412.322 636.579L412.315 636.578L412.312 636.577C397.481 633.557 382.706 630.548 368.054 627.482C281.396 609.345 199.051 589.187 135.276 552.708C71.2677 516.096 32.355 476.63 14.3938 439.694C-3.57701 402.739 -0.569519 368.31 19.2769 341.911L19.5701 342.132L19.277 341.911C28.7302 329.337 46.8709 321.06 70.2084 315.336C93.5686 309.607 122.249 306.41 152.907 304.081C169.215 302.843 186.083 301.85 203.013 300.853H203.013L203.013 300.853L203.014 300.853C249.779 298.1 297.022 295.318 334.294 287.257C371.368 279.241 398.092 264.46 424.549 249.827L424.55 249.827L424.55 249.826L424.551 249.826L424.551 249.826C434.735 244.193 444.88 238.583 455.559 233.388ZM461.499 284.039C437.929 297.058 413.982 310.285 380.862 317.438C347.634 324.614 305.5 327.091 263.881 329.538L263.88 329.538L263.879 329.538C248.838 330.422 233.864 331.303 219.403 332.4C192.143 334.467 166.699 337.302 146.002 342.372C125.282 347.447 109.431 354.737 101.232 365.628C83.8248 388.752 81.1306 418.946 96.9832 451.502C112.845 484.077 147.281 519.011 204.119 551.476C260.696 583.792 333.796 601.673 410.883 617.785C423.896 620.505 437.022 623.175 450.201 625.855L450.205 625.855L450.212 625.857C515.069 639.046 581.192 652.493 641.297 673.475C693.874 691.824 738.185 715.763 781.871 739.364C787.707 742.517 793.532 745.664 799.364 748.79C848.86 775.327 898.881 800.421 960.629 815.511C1028.33 832.053 1098.53 843.682 1161.44 848.295C1224.36 852.909 1279.94 850.5 1318.43 839.001C1337.27 833.369 1348.25 825 1354.2 814.908C1360.17 804.806 1361.16 792.892 1359.86 780.063C1358.78 769.502 1356.17 758.378 1353.54 747.188L1353.54 747.187L1353.54 747.183C1352.97 744.773 1352.4 742.361 1351.85 739.95C1348.74 726.367 1346.09 712.852 1346.7 700.419C1347.29 688.735 1350.53 677.553 1354.08 666.517C1354.34 665.721 1354.6 664.926 1354.85 664.131C1355.09 663.392 1355.33 662.654 1355.58 661.917L1355.64 661.72C1358.71 652.299 1361.77 642.947 1363.36 633.378C1365.23 622.204 1365.1 610.76 1360.69 598.637C1356.28 586.51 1347.57 573.663 1332.19 559.711C1300.92 531.332 1251.75 505.51 1196.3 480.568C1168.57 468.1 1139.29 455.858 1109.91 443.628C1107.85 442.772 1105.79 441.915 1103.73 441.059C1076.4 429.688 1049.06 418.316 1022.9 406.775C990.924 392.668 959.198 377.083 927.435 361.343C924.477 359.877 921.519 358.41 918.56 356.943L918.557 356.941L918.556 356.94C889.741 342.649 860.872 328.332 831.719 314.967C767.423 285.492 701.777 260.666 632.371 251.01C562.892 241.343 522.94 252.994 488.934 269.512C479.514 274.088 470.534 279.048 461.499 284.039ZM488.497 268.613C522.674 252.012 562.825 240.324 632.509 250.02C702.057 259.696 767.806 284.567 832.136 314.058C861.305 327.43 890.189 341.756 919.004 356.046L919.094 356.091C922.023 357.544 924.951 358.996 927.879 360.447C959.643 376.187 991.35 391.763 1023.31 405.861C1049.46 417.396 1076.78 428.764 1104.12 440.135L1104.78 440.412L1110.29 442.705C1139.68 454.934 1168.97 467.181 1196.71 479.656C1252.16 504.599 1301.46 530.475 1332.87 558.97L1332.55 559.314L1332.87 558.971C1348.32 573.001 1357.15 585.977 1361.63 598.296C1366.11 610.618 1366.23 622.243 1364.35 633.543C1362.74 643.193 1359.66 652.625 1356.59 662.043C1356.36 662.747 1356.13 663.452 1355.9 664.156C1355.61 665.045 1355.32 665.934 1355.03 666.824C1351.48 677.854 1348.28 688.927 1347.7 700.469C1347.09 712.748 1349.71 726.141 1352.82 739.726C1353.37 742.123 1353.94 744.527 1354.5 746.931L1354.51 746.934C1357.14 758.127 1359.77 769.33 1360.85 779.962C1362.16 792.886 1361.18 805.05 1355.07 815.416C1348.94 825.791 1337.72 834.28 1318.71 839.959C1280.05 851.511 1224.32 853.909 1161.36 849.292C1098.39 844.675 1028.14 833.036 960.392 816.482C898.514 801.361 848.4 776.215 798.891 749.672C793.113 746.574 787.344 743.457 781.565 740.335L781.413 740.253L781.393 740.242C737.702 716.639 693.464 692.74 640.967 674.419C580.932 653.462 514.89 640.031 450.034 626.841C436.846 624.159 423.708 621.487 410.679 618.764C333.603 602.654 260.355 584.749 203.623 552.344C146.686 519.822 112.066 484.761 96.0841 451.94C80.0927 419.099 82.7668 388.495 100.434 365.026C108.854 353.841 125.005 346.486 145.764 341.401C166.546 336.31 192.058 333.471 219.327 331.403C233.836 330.302 248.841 329.42 263.9 328.534C305.493 326.089 347.505 323.618 380.651 316.46C413.617 309.34 437.377 296.216 460.906 283.22C469.967 278.215 478.993 273.229 488.497 268.613ZM429.376 347.289C458.181 341.069 479.013 329.565 499.508 318.248L499.509 318.247L499.511 318.246C507.363 313.91 515.167 309.601 523.351 305.626C552.905 291.275 587.627 281.15 648.021 289.55C708.356 297.942 765.423 319.518 821.32 345.137C846.67 356.756 871.773 369.203 896.83 381.627L896.831 381.627L896.833 381.629C899.401 382.902 901.967 384.174 904.534 385.446C932.148 399.127 959.73 412.675 987.534 424.937C1010.27 434.963 1034.03 444.843 1057.78 454.722C1059.58 455.471 1061.38 456.221 1063.18 456.971C1088.73 467.6 1114.19 478.241 1138.29 489.078C1186.51 510.758 1229.24 533.199 1256.43 557.858C1269.79 569.981 1277.36 581.138 1281.19 591.667C1285.02 602.19 1285.13 612.125 1283.51 621.829C1282.13 630.142 1279.47 638.266 1276.8 646.455C1276.52 647.326 1276.23 648.198 1275.95 649.071C1275.78 649.588 1275.61 650.105 1275.45 650.623C1272.36 660.215 1269.54 669.942 1269.03 680.106C1268.49 690.923 1270.79 702.679 1273.5 714.485C1273.98 716.574 1274.47 718.665 1274.96 720.752L1274.97 720.778L1274.97 720.782C1277.25 730.508 1279.53 740.171 1280.46 749.345C1281.59 760.49 1280.72 770.83 1275.55 779.593C1270.38 788.347 1260.86 795.613 1244.48 800.505C1211.03 810.499 1162.72 812.594 1108.02 808.583C1053.33 804.574 992.297 794.465 933.442 780.085C879.765 766.971 836.282 745.163 793.249 722.099C788.179 719.381 783.115 716.647 778.042 713.907C740.059 693.393 701.528 672.583 655.811 656.633C603.554 638.398 546.065 626.709 489.682 615.245L489.681 615.245L489.674 615.243C478.211 612.913 466.794 610.591 455.475 608.226C388.453 594.22 324.908 578.678 275.729 550.595C226.319 522.38 196.391 492.023 182.608 463.724C168.834 435.445 171.178 409.227 186.296 389.151C193.41 379.704 207.172 373.372 225.184 368.961C243.174 364.556 265.291 362.092 288.991 360.295C301.561 359.342 314.577 358.577 327.653 357.808C363.839 355.681 400.481 353.527 429.376 347.289ZM648.159 288.56C587.56 280.131 552.639 290.292 522.914 304.727C514.645 308.743 506.794 313.078 498.915 317.429C478.462 328.724 457.816 340.125 429.165 346.311C400.352 352.532 363.832 354.679 327.672 356.805L327.668 356.805L327.667 356.805L327.665 356.805C314.574 357.575 301.529 358.341 288.915 359.298C265.206 361.096 243.02 363.564 224.946 367.99C206.895 372.41 192.833 378.808 185.497 388.549C170.12 408.97 167.796 435.598 181.709 464.162C195.612 492.707 225.724 523.191 275.233 551.463C324.566 579.635 388.26 595.201 455.271 609.205C466.603 611.573 478.03 613.896 489.499 616.229L489.502 616.229C545.885 627.693 603.294 639.366 655.481 657.577C701.118 673.499 739.576 694.269 777.563 714.784L777.564 714.785L777.587 714.798C782.653 717.534 787.711 720.265 792.776 722.98C835.822 746.051 879.399 767.911 933.205 781.056C992.106 795.448 1053.19 805.566 1107.94 809.581C1162.69 813.594 1211.14 811.51 1244.77 801.463C1261.3 796.524 1271.08 789.138 1276.41 780.101C1281.74 771.074 1282.59 760.485 1281.45 749.244C1280.51 739.998 1278.22 730.255 1275.93 720.526L1275.93 720.508C1275.44 718.423 1274.95 716.34 1274.47 714.262C1271.77 702.453 1269.49 690.819 1270.03 680.156C1270.53 670.134 1273.31 660.516 1276.4 650.929C1276.51 650.579 1276.62 650.228 1276.74 649.877C1276.9 649.385 1277.06 648.893 1277.22 648.401C1277.39 647.859 1277.57 647.317 1277.75 646.775L1277.75 646.773C1280.42 638.589 1283.1 630.386 1284.5 621.993C1286.14 612.164 1286.03 602.048 1282.13 591.325C1278.23 580.605 1270.55 569.318 1257.1 557.118C1229.79 532.341 1186.92 509.847 1138.7 488.166C1114.59 477.323 1089.12 466.677 1063.57 456.047C1061.77 455.298 1059.97 454.549 1058.17 453.8L1058.15 453.794C1034.4 443.917 1010.66 434.042 987.937 424.022C960.156 411.77 932.592 398.232 904.977 384.55C902.411 383.278 899.844 382.005 897.276 380.732L897.275 380.732C872.219 368.308 847.102 355.854 821.737 344.228C765.806 318.593 708.635 296.972 648.159 288.56ZM535.037 350.821C517.395 360.566 499.454 370.478 474.653 375.835C449.78 381.207 418.238 383.062 387.094 384.894C375.842 385.555 364.641 386.214 353.826 387.034C333.43 388.581 314.401 390.703 298.925 394.494C283.426 398.291 271.603 403.737 265.496 411.85C252.505 429.111 250.488 451.656 262.332 475.983C274.186 500.331 299.93 526.457 342.446 550.744C384.759 574.916 439.438 588.295 497.119 600.352C506.863 602.389 516.692 604.388 526.561 606.395C575.083 616.264 624.562 626.327 669.536 642.026C708.887 655.762 742.05 673.682 774.736 691.344L774.737 691.345L774.738 691.345L774.745 691.349L774.752 691.352C779.114 693.71 783.468 696.062 787.828 698.4C824.86 718.258 862.274 737.031 908.459 748.319C959.108 760.696 1011.63 769.398 1058.69 772.85C1105.77 776.303 1147.34 774.499 1176.12 765.899C1190.2 761.691 1198.38 755.444 1202.82 747.926C1207.26 740.4 1208 731.516 1207.03 721.927C1206.23 714.031 1204.27 705.714 1202.3 697.338C1201.88 695.534 1201.46 693.728 1201.04 691.923C1198.71 681.758 1196.72 671.628 1197.19 662.303C1197.62 653.543 1200.06 645.162 1202.71 636.903C1203.1 635.704 1203.49 634.508 1203.88 633.313L1203.88 633.309C1206.18 626.259 1208.46 619.272 1209.65 612.122C1211.04 603.776 1210.95 595.235 1207.66 586.189C1204.36 577.137 1197.86 567.54 1186.36 557.109C1162.98 535.886 1126.21 516.57 1084.72 497.904C1063.98 488.575 1042.07 479.414 1020.08 470.262L1018.31 469.528L1015.44 468.333L1015.44 468.332L1015.44 468.331C994.993 459.824 974.544 451.316 954.974 442.682C931.042 432.124 907.302 420.46 883.536 408.681C881.324 407.584 879.111 406.487 876.898 405.389L876.896 405.388C855.334 394.693 833.734 383.979 811.922 373.977C763.818 351.922 714.711 333.349 662.794 326.125C610.834 318.895 580.966 327.61 555.544 339.96C548.507 343.379 541.794 347.088 535.037 350.821ZM555.107 339.061C580.7 326.627 610.767 317.876 662.932 325.135C714.991 332.379 764.201 350.997 812.339 373.068C834.165 383.076 855.777 393.796 877.335 404.49L877.34 404.492L877.434 404.538C879.616 405.621 881.798 406.703 883.98 407.785C907.747 419.564 931.469 431.219 955.377 441.767C974.939 450.397 995.379 458.902 1015.83 467.41L1020.46 469.339C1042.45 478.49 1064.37 487.656 1085.13 496.992C1126.62 515.658 1163.52 535.029 1187.04 556.368C1198.61 566.877 1205.23 576.604 1208.6 585.847C1211.96 595.094 1212.05 603.816 1210.64 612.287C1209.43 619.517 1207.13 626.584 1204.83 633.63L1204.83 633.631L1204.82 633.635L1204.79 633.745C1204.65 634.186 1204.5 634.626 1204.36 635.067C1204.13 635.781 1203.89 636.495 1203.66 637.209C1201.01 645.463 1198.61 653.735 1198.19 662.353C1197.73 671.524 1199.69 681.532 1202.02 691.699C1202.42 693.48 1202.84 695.265 1203.26 697.051L1203.27 697.087L1203.27 697.09C1205.24 705.466 1207.22 713.86 1208.02 721.826C1209.01 731.51 1208.28 740.644 1203.68 748.435C1199.08 756.234 1190.65 762.602 1176.41 766.857C1147.45 775.51 1105.73 777.303 1058.62 773.847C1011.49 770.39 958.917 761.679 908.222 749.291C861.908 737.971 824.401 719.147 787.355 699.281C782.996 696.944 778.644 694.592 774.284 692.237L774.273 692.23L774.261 692.224L774.26 692.224C741.569 674.559 708.477 656.679 669.206 642.97C624.303 627.296 574.905 617.249 526.383 607.38C516.509 605.371 506.671 603.371 496.915 601.331C439.245 589.276 384.418 575.873 341.95 551.612C299.335 527.269 273.407 501.014 261.433 476.421C249.45 451.809 251.447 428.854 264.697 411.249C271.026 402.842 283.149 397.329 298.687 393.523C314.247 389.711 333.346 387.585 353.75 386.037C364.612 385.213 375.843 384.553 387.114 383.89H387.114C418.232 382.06 449.651 380.212 474.441 374.857C499.089 369.533 516.844 359.725 534.443 350.002C541.226 346.255 547.985 342.521 555.107 339.061ZM521.55 404.033C542.192 399.574 557.13 391.32 571.807 383.211L571.809 383.21C577.427 380.106 583.006 377.024 588.852 374.184C609.982 363.917 634.808 356.671 678.01 362.683C721.179 368.691 762.017 384.136 802.026 402.482C820.171 410.803 838.14 419.716 856.078 428.615L856.081 428.617L858.985 430.058C859.854 430.488 860.722 430.919 861.59 431.349C881.358 441.148 901.105 450.851 921.01 459.635C937.291 466.818 954.301 473.896 971.306 480.972L975.169 482.58C993.459 490.193 1011.68 497.813 1028.93 505.574C1063.45 521.101 1094.02 537.165 1113.45 554.809C1123 563.48 1128.41 571.453 1131.14 578.967C1133.87 586.475 1133.95 593.565 1132.8 600.498C1131.8 606.441 1129.91 612.249 1128 618.116L1127.96 618.236C1127.65 619.189 1127.33 620.143 1127.03 621.1C1124.82 627.971 1122.79 634.952 1122.43 642.252C1122.04 650.022 1123.7 658.459 1125.63 666.914C1125.98 668.417 1126.33 669.92 1126.68 671.421C1128.32 678.388 1129.94 685.3 1130.61 691.861C1131.42 699.829 1130.8 707.198 1127.12 713.437C1123.44 719.666 1116.66 724.852 1104.96 728.35C1081.04 735.499 1046.48 736.999 1007.33 734.128C968.187 731.257 924.508 724.02 882.381 713.726C843.976 704.337 812.863 688.725 782.061 672.208C778.443 670.267 774.828 668.314 771.207 666.357L771.173 666.339C743.986 651.648 716.396 636.739 683.66 625.31C646.243 612.247 605.08 603.874 564.719 595.664L564.701 595.66C556.5 593.992 548.333 592.331 540.236 590.638C492.258 580.607 446.792 569.48 411.609 549.38C376.253 529.18 354.856 507.457 345.006 487.224C335.166 467.011 336.846 448.292 347.63 433.963C352.691 427.238 362.499 422.713 375.387 419.556C388.252 416.404 404.075 414.639 421.038 413.352C430.029 412.67 439.341 412.123 448.697 411.572H448.697C474.606 410.048 500.854 408.504 521.55 404.033ZM678.147 361.693C634.742 355.652 609.716 362.934 588.414 373.284C582.484 376.166 576.857 379.275 571.214 382.393L571.213 382.393C556.578 390.479 541.827 398.629 521.339 403.055C500.725 407.509 474.599 409.046 448.717 410.569H448.717C439.342 411.12 430 411.67 420.963 412.355C403.99 413.643 388.099 415.412 375.149 418.584C362.222 421.752 352.113 426.343 346.831 433.361L347.23 433.662L346.831 433.361C335.788 448.035 334.128 467.164 344.107 487.662C354.077 508.14 375.658 529.991 411.112 550.248C446.45 570.437 492.065 581.589 540.031 591.617C548.146 593.313 556.328 594.978 564.54 596.648L564.541 596.648C604.9 604.858 645.983 613.215 683.33 626.254C715.985 637.654 743.503 652.524 770.694 667.217L770.696 667.218L770.735 667.239C774.355 669.195 777.969 671.148 781.589 673.089C812.404 689.614 843.609 705.277 882.143 714.697C924.316 725.003 968.051 732.249 1007.25 735.125C1046.44 737.999 1081.15 736.509 1105.24 729.308C1117.1 725.764 1124.13 720.456 1127.98 713.945C1131.82 707.443 1132.42 699.824 1131.6 691.761C1130.93 685.128 1129.29 678.138 1127.65 671.169C1127.3 669.674 1126.95 668.18 1126.61 666.691C1124.67 658.233 1123.05 649.918 1123.43 642.302C1123.78 635.144 1125.77 628.272 1127.98 621.406C1128.3 620.417 1128.62 619.428 1128.94 618.438L1128.94 618.434C1130.86 612.572 1132.78 606.685 1133.78 600.662C1134.96 593.604 1134.88 586.334 1132.08 578.625C1129.28 570.92 1123.76 562.818 1114.13 554.069C1094.56 536.308 1063.86 520.19 1029.34 504.662C1012.08 496.895 993.842 489.269 975.553 481.657L971.695 480.051C954.687 472.974 937.685 465.899 921.414 458.72C901.531 449.946 881.802 440.252 862.034 430.453C860.199 429.543 858.363 428.633 856.526 427.722C838.589 418.823 820.605 409.901 802.443 401.573C762.399 383.212 721.459 367.72 678.147 361.693Z" fill="url(#paint0_linear_2_26)"/>
<defs>
<linearGradient id="paint0_linear_2_26" x1="722.006" y1="208.5" x2="722.006" y2="889.5" gradientUnits="userSpaceOnUse">
<stop stop-color="#E1E1E1"/>
<stop offset="1" stop-color="#E1E1E1" stop-opacity="0"/>
</linearGradient>
</defs>
</svg>
